# xmcd
#
# Track frame offsets:
#	150
#	19199
#	37812
#	52854
#	71989
#	92961
#	110335
#	126151
#	143212
#	158225
#
# Disc length: 2307 seconds
#
# Revision: 1
# Processed by: cddbd v1.5.1PL2 Copyright (c) Steve Scherf et al.
# Submitted via: audiograbber 1.80.04
#
DISCID=8509010a
DTITLE=Alfonso - Letras Del Alma
DYEAR=2005
DGENRE=Ballad
TTITLE0=He Aprendido a Amarte
TTITLE1=Solo Tu Llenas Mi Corazon
TTITLE2=Te Daria El Universo
TTITLE3=Ahora Sin Reservas
TTITLE4=Victima De Tu Amor
TTITLE5=Amame
TTITLE6=Asi Es Mejor
TTITLE7=Esa Es La Historia
TTITLE8=Ahora Sin Ti
TTITLE9=Y Aqui Estoy
EXTD=
EXTT0=
EXTT1=
EXTT2=
EXTT3=
EXTT4=
EXTT5=
EXTT6=
EXTT7=
EXTT8=
EXTT9=
PLAYORDER=
